<?xml version="1.0" encoding="UTF-8" standalone="no"?>
<!-- Created with Inkscape (http://www.inkscape.org/) -->

<svg
   xmlns:dc="http://purl.org/dc/elements/1.1/"
   xmlns:cc="http://creativecommons.org/ns#"
   xmlns:rdf="http://www.w3.org/1999/02/22-rdf-syntax-ns#"
   xmlns:svg="http://www.w3.org/2000/svg"
   xmlns="http://www.w3.org/2000/svg"
   xmlns:sodipodi="http://sodipodi.sourceforge.net/DTD/sodipodi-0.dtd"
   xmlns:inkscape="http://www.inkscape.org/namespaces/inkscape"
   width="210mm"
   height="297mm"
   viewBox="0 0 210 297"
   version="1.1"
   id="svg8"
   inkscape:export-filename="/home/david/bitmap.png"
   inkscape:export-xdpi="100.01345"
   inkscape:export-ydpi="100.01345"
   inkscape:version="0.92.2 5c3e80d, 2017-08-06"
   sodipodi:docname="dibujo.svg">
  <defs
     id="defs2" />
  <sodipodi:namedview
     id="base"
     pagecolor="#ffffff"
     bordercolor="#666666"
     borderopacity="1.0"
     inkscape:pageopacity="0.0"
     inkscape:pageshadow="2"
     inkscape:zoom="0.20577075"
     inkscape:cx="251.99649"
     inkscape:cy="816.71027"
     inkscape:document-units="mm"
     inkscape:current-layer="layer1"
     showgrid="false"
     inkscape:window-width="1190"
     inkscape:window-height="614"
     inkscape:window-x="0"
     inkscape:window-y="19"
     inkscape:window-maximized="0" />
  <metadata
     id="metadata5">
    <rdf:RDF>
      <cc:Work
         rdf:about="">
        <dc:format>image/svg+xml</dc:format>
        <dc:type
           rdf:resource="http://purl.org/dc/dcmitype/StillImage" />
        <dc:title></dc:title>
      </cc:Work>
    </rdf:RDF>
  </metadata>
  <g
     inkscape:label="Capa 1"
     inkscape:groupmode="layer"
     id="layer1">
    <path
       style="opacity:1;fill:#000000;fill-opacity:1;stroke:none;stroke-width:0.11784913;stroke-miterlimit:4;stroke-dasharray:0.70709477, 0.23569826;stroke-dashoffset:0;stroke-opacity:1"
       d="m 56.580383,110.46665 c 0.180228,3.32 -4.422974,5.18929 -6.607112,2.68041 -2.402774,-2.22188 -0.507719,-6.70296 2.759853,-6.52767 2.070507,-0.0411 3.888125,1.77546 3.847259,3.84726 z"
       id="path4504"
       inkscape:connector-curvature="0"
       inkscape:export-xdpi="0.95999998"
       inkscape:export-ydpi="0.95999998" />
    <path
       style="opacity:1;fill:#000000;fill-opacity:1;stroke:none;stroke-width:0.11784913;stroke-miterlimit:4;stroke-dasharray:0.70709477, 0.23569826;stroke-dashoffset:0;stroke-opacity:1"
       d="m 76.014226,110.46665 c 0.180228,3.32 -4.422974,5.18929 -6.607113,2.68041 -2.402773,-2.22188 -0.507718,-6.70296 2.759854,-6.52767 2.070507,-0.0411 3.888124,1.77546 3.847259,3.84726 z"
       id="circle4506"
       inkscape:connector-curvature="0"
       inkscape:export-xdpi="0.95999998"
       inkscape:export-ydpi="0.95999998" />
    <path
       style="opacity:1;fill:#000000;fill-opacity:1;stroke:none;stroke-width:0.11784913;stroke-miterlimit:4;stroke-dasharray:0.70709477, 0.23569826;stroke-dashoffset:0;stroke-opacity:1"
       d="m 95.448069,110.46665 c 0.180234,3.32 -4.422977,5.18929 -6.607114,2.68041 -2.402771,-2.22188 -0.507717,-6.70296 2.759857,-6.52767 2.070505,-0.0411 3.888126,1.77546 3.847257,3.84726 z"
       id="circle4508"
       inkscape:connector-curvature="0"
       inkscape:export-xdpi="0.95999998"
       inkscape:export-ydpi="0.95999998" />
    <path
       style="opacity:1;fill:#000000;fill-opacity:1;stroke:none;stroke-width:0.11784913;stroke-miterlimit:4;stroke-dasharray:0.70709477, 0.23569826;stroke-dashoffset:0;stroke-opacity:1"
       d="m 114.88191,110.46665 c 0.18022,3.32 -4.42298,5.18929 -6.60711,2.68041 -2.40277,-2.22188 -0.50772,-6.70296 2.75985,-6.52767 2.07051,-0.0411 3.88812,1.77546 3.84726,3.84726 z"
       id="path4504-3"
       inkscape:connector-curvature="0"
       inkscape:export-xdpi="0.95999998"
       inkscape:export-ydpi="0.95999998" />
    <path
       style="opacity:1;fill:#000000;fill-opacity:1;stroke:none;stroke-width:0.11784913;stroke-miterlimit:4;stroke-dasharray:0.70709477, 0.23569826;stroke-dashoffset:0;stroke-opacity:1"
       d="m 134.31575,110.46665 c 0.18023,3.32 -4.42297,5.18929 -6.60712,2.68041 -2.40276,-2.22188 -0.50771,-6.70296 2.75986,-6.52767 2.07051,-0.0411 3.88813,1.77546 3.84726,3.84726 z"
       id="circle4506-6"
       inkscape:connector-curvature="0"
       inkscape:export-xdpi="0.95999998"
       inkscape:export-ydpi="0.95999998" />
    <path
       style="opacity:1;fill:#000000;fill-opacity:1;stroke:none;stroke-width:0.11784913;stroke-miterlimit:4;stroke-dasharray:0.70709477, 0.23569826;stroke-dashoffset:0;stroke-opacity:1"
       d="m 153.74959,110.46665 c 0.18023,3.32 -4.42297,5.18929 -6.60711,2.68041 -2.40276,-2.22188 -0.50772,-6.70296 2.75986,-6.52767 2.07051,-0.0411 3.88812,1.77546 3.84725,3.84726 z"
       id="circle4508-7"
       inkscape:connector-curvature="0"
       inkscape:export-xdpi="0.95999998"
       inkscape:export-ydpi="0.95999998" />
    <path
       style="opacity:1;fill:#000000;fill-opacity:1;stroke:none;stroke-width:0.11784913;stroke-miterlimit:4;stroke-dasharray:0.70709477, 0.23569826;stroke-dashoffset:0;stroke-opacity:1"
       d="m 56.580383,129.90049 c 0.180228,3.32 -4.422974,5.18929 -6.607112,2.68041 -2.402774,-2.22188 -0.507719,-6.70297 2.759853,-6.52767 2.070507,-0.0411 3.888125,1.77547 3.847259,3.84726 z"
       id="path4504-5"
       inkscape:connector-curvature="0"
       inkscape:export-xdpi="0.95999998"
       inkscape:export-ydpi="0.95999998" />
    <path
       style="opacity:1;fill:#000000;fill-opacity:1;stroke:none;stroke-width:0.11784913;stroke-miterlimit:4;stroke-dasharray:0.70709477, 0.23569826;stroke-dashoffset:0;stroke-opacity:1"
       d="m 76.014226,129.90049 c 0.180228,3.32 -4.422974,5.18929 -6.607113,2.68041 -2.402773,-2.22188 -0.507718,-6.70297 2.759854,-6.52767 2.070507,-0.0411 3.888124,1.77547 3.847259,3.84726 z"
       id="circle4506-3"
       inkscape:connector-curvature="0"
       inkscape:export-xdpi="0.95999998"
       inkscape:export-ydpi="0.95999998" />
    <path
       style="opacity:1;fill:#000000;fill-opacity:1;stroke:none;stroke-width:0.11784913;stroke-miterlimit:4;stroke-dasharray:0.70709477, 0.23569826;stroke-dashoffset:0;stroke-opacity:1"
       d="m 95.448069,129.90049 c 0.180234,3.32 -4.422977,5.18929 -6.607114,2.68041 -2.402771,-2.22188 -0.507717,-6.70297 2.759857,-6.52767 2.070505,-0.0411 3.888126,1.77547 3.847257,3.84726 z"
       id="circle4508-5"
       inkscape:connector-curvature="0"
       inkscape:export-xdpi="0.95999998"
       inkscape:export-ydpi="0.95999998" />
    <path
       style="opacity:1;fill:#000000;fill-opacity:1;stroke:none;stroke-width:0.11784913;stroke-miterlimit:4;stroke-dasharray:0.70709479, 0.23569826;stroke-dashoffset:0;stroke-opacity:1"
       d="m 114.88191,129.90049 c 0.18022,3.32 -4.42298,5.18929 -6.60711,2.68041 -2.40277,-2.22188 -0.50772,-6.70297 2.75985,-6.52767 2.07051,-0.0411 3.88812,1.77547 3.84726,3.84726 z"
       id="path4504-3-6"
       inkscape:connector-curvature="0"
       inkscape:export-xdpi="0.95999998"
       inkscape:export-ydpi="0.95999998" />
    <path
       style="opacity:1;fill:#000000;fill-opacity:1;stroke:none;stroke-width:0.11784913;stroke-miterlimit:4;stroke-dasharray:0.70709479, 0.23569826;stroke-dashoffset:0;stroke-opacity:1"
       d="m 134.31575,129.90049 c 0.18023,3.32 -4.42297,5.18929 -6.60712,2.68041 -2.40276,-2.22188 -0.50771,-6.70297 2.75986,-6.52767 2.07051,-0.0411 3.88813,1.77547 3.84726,3.84726 z"
       id="circle4506-6-2"
       inkscape:connector-curvature="0"
       inkscape:export-xdpi="0.95999998"
       inkscape:export-ydpi="0.95999998" />
    <path
       style="opacity:1;fill:#000000;fill-opacity:1;stroke:none;stroke-width:0.11784913;stroke-miterlimit:4;stroke-dasharray:0.70709479, 0.23569826;stroke-dashoffset:0;stroke-opacity:1"
       d="m 153.74959,129.90049 c 0.18023,3.32 -4.42297,5.18929 -6.60711,2.68041 -2.40276,-2.22188 -0.50772,-6.70297 2.75986,-6.52767 2.07051,-0.0411 3.88812,1.77547 3.84725,3.84726 z"
       id="circle4508-7-9"
       inkscape:connector-curvature="0"
       inkscape:export-xdpi="0.95999998"
       inkscape:export-ydpi="0.95999998" />
    <path
       style="opacity:1;fill:#000000;fill-opacity:1;stroke:none;stroke-width:0.11784913;stroke-miterlimit:4;stroke-dasharray:0.70709477, 0.23569826;stroke-dashoffset:0;stroke-opacity:1"
       d="m 76.014226,149.33433 c 0.180228,3.32 -4.422974,5.18929 -6.607112,2.68041 -2.402774,-2.22188 -0.507719,-6.70297 2.759853,-6.52766 2.070507,-0.0411 3.888125,1.77546 3.847259,3.84725 z"
       id="path4504-1"
       inkscape:connector-curvature="0"
       inkscape:export-xdpi="0.95999998"
       inkscape:export-ydpi="0.95999998" />
    <path
       style="opacity:1;fill:#000000;fill-opacity:1;stroke:none;stroke-width:0.11784913;stroke-miterlimit:4;stroke-dasharray:0.70709477, 0.23569826;stroke-dashoffset:0;stroke-opacity:1"
       d="m 95.448068,149.33433 c 0.180228,3.32 -4.422971,5.18929 -6.607108,2.68041 -2.402777,-2.22188 -0.507723,-6.70297 2.759851,-6.52766 2.070505,-0.0411 3.888126,1.77546 3.847257,3.84725 z"
       id="circle4506-2"
       inkscape:connector-curvature="0"
       inkscape:export-xdpi="0.95999998"
       inkscape:export-ydpi="0.95999998" />
    <path
       style="opacity:1;fill:#000000;fill-opacity:1;stroke:none;stroke-width:0.11784913;stroke-miterlimit:4;stroke-dasharray:0.70709477, 0.23569826;stroke-dashoffset:0;stroke-opacity:1"
       d="m 114.88191,149.33433 c 0.18023,3.32 -4.42298,5.18929 -6.60711,2.68041 -2.40277,-2.22188 -0.50772,-6.70297 2.75985,-6.52766 2.07051,-0.0411 3.88813,1.77546 3.84726,3.84725 z"
       id="circle4508-70"
       inkscape:connector-curvature="0"
       inkscape:export-xdpi="0.95999998"
       inkscape:export-ydpi="0.95999998" />
    <path
       style="opacity:1;fill:#000000;fill-opacity:1;stroke:none;stroke-width:0.11784913;stroke-miterlimit:4;stroke-dasharray:0.70709479, 0.23569826;stroke-dashoffset:0;stroke-opacity:1"
       d="m 134.31575,149.33433 c 0.18023,3.32 -4.42298,5.18929 -6.60711,2.68041 -2.40277,-2.22188 -0.50772,-6.70297 2.75985,-6.52766 2.07051,-0.0411 3.88813,1.77546 3.84726,3.84725 z"
       id="path4504-3-9"
       inkscape:connector-curvature="0"
       inkscape:export-xdpi="0.95999998"
       inkscape:export-ydpi="0.95999998" />
    <path
       style="opacity:1;fill:#000000;fill-opacity:1;stroke:none;stroke-width:0.11784913;stroke-miterlimit:4;stroke-dasharray:0.70709479, 0.23569826;stroke-dashoffset:0;stroke-opacity:1"
       d="m 153.7496,149.33433 c 0.18022,3.32 -4.42297,5.18929 -6.60712,2.68041 -2.40277,-2.22188 -0.50772,-6.70297 2.75985,-6.52766 2.07052,-0.0411 3.88813,1.77546 3.84727,3.84725 z"
       id="circle4506-6-3"
       inkscape:connector-curvature="0"
       inkscape:export-xdpi="0.95999998"
       inkscape:export-ydpi="0.95999998" />
    <path
       style="opacity:1;fill:#000000;fill-opacity:1;stroke:none;stroke-width:0.11784913;stroke-miterlimit:4;stroke-dasharray:0.70709479, 0.23569826;stroke-dashoffset:0;stroke-opacity:1"
       d="m 153.74959,168.76817 c 0.18023,3.32 -4.42297,5.18929 -6.60711,2.68041 -2.40276,-2.22188 -0.50772,-6.70296 2.75986,-6.52766 2.07051,-0.0411 3.88812,1.77546 3.84725,3.84725 z"
       id="circle4508-7-6"
       inkscape:connector-curvature="0"
       inkscape:export-xdpi="0.95999998"
       inkscape:export-ydpi="0.95999998" />
    <path
       style="opacity:1;fill:#000000;fill-opacity:1;stroke:none;stroke-width:0.11784913;stroke-miterlimit:4;stroke-dasharray:0.70709479, 0.23569826;stroke-dashoffset:0;stroke-opacity:1"
       d="m 56.580383,149.33433 c 0.180228,3.31999 -4.422974,5.18929 -6.607112,2.68041 -2.402774,-2.22188 -0.50772,-6.70296 2.759853,-6.52767 2.070507,-0.0411 3.888125,1.77548 3.847259,3.84726 z"
       id="path4504-5-0"
       inkscape:connector-curvature="0"
       inkscape:export-xdpi="0.95999998"
       inkscape:export-ydpi="0.95999998" />
    <path
       style="opacity:1;fill:#000000;fill-opacity:1;stroke:none;stroke-width:0.11784913;stroke-miterlimit:4;stroke-dasharray:0.70709479, 0.23569826;stroke-dashoffset:0;stroke-opacity:1"
       d="m 56.580383,168.76818 c 0.180228,3.31999 -4.422974,5.18928 -6.607113,2.68041 -2.402773,-2.22188 -0.507718,-6.70297 2.759854,-6.52767 2.070507,-0.0411 3.888124,1.77547 3.847259,3.84726 z"
       id="circle4506-3-6"
       inkscape:connector-curvature="0"
       inkscape:export-xdpi="0.95999998"
       inkscape:export-ydpi="0.95999998" />
    <path
       style="opacity:1;fill:#000000;fill-opacity:1;stroke:none;stroke-width:0.11784913;stroke-miterlimit:4;stroke-dasharray:0.70709479, 0.23569826;stroke-dashoffset:0;stroke-opacity:1"
       d="m 76.014226,168.76818 c 0.180234,3.31999 -4.422977,5.18928 -6.607114,2.68041 -2.402771,-2.22188 -0.507717,-6.70297 2.759857,-6.52767 2.070505,-0.0411 3.888126,1.77547 3.847257,3.84726 z"
       id="circle4508-5-2"
       inkscape:connector-curvature="0"
       inkscape:export-xdpi="0.95999998"
       inkscape:export-ydpi="0.95999998" />
    <path
       style="opacity:1;fill:#000000;fill-opacity:1;stroke:none;stroke-width:0.11784913;stroke-miterlimit:4;stroke-dasharray:0.70709479, 0.23569826;stroke-dashoffset:0;stroke-opacity:1"
       d="m 95.448069,168.76818 c 0.180222,3.31999 -4.422983,5.18928 -6.607114,2.68041 -2.402771,-2.22188 -0.507717,-6.70297 2.759851,-6.52767 2.070511,-0.0411 3.888127,1.77547 3.847263,3.84726 z"
       id="path4504-3-6-6"
       inkscape:connector-curvature="0"
       inkscape:export-xdpi="0.95999998"
       inkscape:export-ydpi="0.95999998" />
    <path
       style="opacity:1;fill:#000000;fill-opacity:1;stroke:none;stroke-width:0.11784913;stroke-miterlimit:4;stroke-dasharray:0.70709479, 0.23569826;stroke-dashoffset:0;stroke-opacity:1"
       d="m 114.88191,168.76818 c 0.18022,3.31999 -4.42297,5.18928 -6.60712,2.68041 -2.40276,-2.22188 -0.50771,-6.70297 2.75986,-6.52767 2.07051,-0.0411 3.88813,1.77547 3.84726,3.84726 z"
       id="circle4506-6-2-1"
       inkscape:connector-curvature="0"
       inkscape:export-xdpi="0.95999998"
       inkscape:export-ydpi="0.95999998" />
    <path
       style="opacity:1;fill:#000000;fill-opacity:1;stroke:none;stroke-width:0.11784913;stroke-miterlimit:4;stroke-dasharray:0.70709479, 0.23569826;stroke-dashoffset:0;stroke-opacity:1"
       d="m 134.31575,168.76818 c 0.18023,3.31999 -4.42297,5.18928 -6.60711,2.68041 -2.40277,-2.22188 -0.50772,-6.70297 2.75985,-6.52767 2.07052,-0.0411 3.88813,1.77547 3.84726,3.84726 z"
       id="circle4508-7-9-8"
       inkscape:connector-curvature="0"
       inkscape:export-xdpi="0.95999998"
       inkscape:export-ydpi="0.95999998" />
    <path
       style="opacity:1;fill:#000000;fill-opacity:1;stroke:none;stroke-width:0.11784913;stroke-miterlimit:4;stroke-dasharray:0.70709479, 0.23569826;stroke-dashoffset:0;stroke-opacity:1"
       d="m 56.580383,188.20202 c 0.180228,3.31999 -4.422974,5.18928 -6.607112,2.68041 -2.402774,-2.22187 -0.507719,-6.70297 2.759853,-6.52767 2.070507,-0.0411 3.888125,1.77548 3.847259,3.84726 z"
       id="path4504-1-7"
       inkscape:connector-curvature="0"
       inkscape:export-xdpi="0.95999998"
       inkscape:export-ydpi="0.95999998" />
    <path
       style="opacity:1;fill:#000000;fill-opacity:1;stroke:none;stroke-width:0.11784913;stroke-miterlimit:4;stroke-dasharray:0.70709479, 0.23569826;stroke-dashoffset:0;stroke-opacity:1"
       d="m 76.014226,188.20202 c 0.180228,3.31999 -4.422974,5.18928 -6.607113,2.68041 -2.402773,-2.22187 -0.507718,-6.70297 2.759854,-6.52767 2.070507,-0.0411 3.888124,1.77548 3.847259,3.84726 z"
       id="circle4506-2-9"
       inkscape:connector-curvature="0"
       inkscape:export-xdpi="0.95999998"
       inkscape:export-ydpi="0.95999998" />
    <path
       style="opacity:1;fill:#000000;fill-opacity:1;stroke:none;stroke-width:0.11784913;stroke-miterlimit:4;stroke-dasharray:0.70709479, 0.23569826;stroke-dashoffset:0;stroke-opacity:1"
       d="m 95.448069,188.20202 c 0.180234,3.31999 -4.422977,5.18928 -6.607114,2.68041 -2.402771,-2.22187 -0.507717,-6.70297 2.759857,-6.52767 2.070505,-0.0411 3.888126,1.77548 3.847257,3.84726 z"
       id="circle4508-70-2"
       inkscape:connector-curvature="0"
       inkscape:export-xdpi="0.95999998"
       inkscape:export-ydpi="0.95999998" />
    <path
       style="opacity:1;fill:#000000;fill-opacity:1;stroke:none;stroke-width:0.11784913;stroke-miterlimit:4;stroke-dasharray:0.70709479, 0.23569826;stroke-dashoffset:0;stroke-opacity:1"
       d="m 114.88191,188.20202 c 0.18022,3.31999 -4.42298,5.18928 -6.60711,2.68041 -2.40277,-2.22187 -0.50772,-6.70297 2.75985,-6.52767 2.07051,-0.0411 3.88812,1.77548 3.84726,3.84726 z"
       id="path4504-3-9-0"
       inkscape:connector-curvature="0"
       inkscape:export-xdpi="0.95999998"
       inkscape:export-ydpi="0.95999998" />
    <path
       style="opacity:1;fill:#000000;fill-opacity:1;stroke:none;stroke-width:0.11784913;stroke-miterlimit:4;stroke-dasharray:0.70709479, 0.23569826;stroke-dashoffset:0;stroke-opacity:1"
       d="m 134.31575,188.20202 c 0.18023,3.31999 -4.42297,5.18928 -6.60712,2.68041 -2.40276,-2.22187 -0.50771,-6.70297 2.75986,-6.52767 2.07051,-0.0411 3.88813,1.77548 3.84726,3.84726 z"
       id="circle4506-6-3-2"
       inkscape:connector-curvature="0"
       inkscape:export-xdpi="0.95999998"
       inkscape:export-ydpi="0.95999998" />
    <path
       style="opacity:1;fill:#000000;fill-opacity:1;stroke:none;stroke-width:0.11784913;stroke-miterlimit:4;stroke-dasharray:0.70709479, 0.23569826;stroke-dashoffset:0;stroke-opacity:1"
       d="m 153.74959,188.20202 c 0.18023,3.31999 -4.42297,5.18928 -6.60711,2.68041 -2.40276,-2.22187 -0.50772,-6.70297 2.75986,-6.52767 2.07051,-0.0411 3.88812,1.77548 3.84725,3.84726 z"
       id="circle4508-7-6-3"
       inkscape:connector-curvature="0"
       inkscape:export-xdpi="0.95999998"
       inkscape:export-ydpi="0.95999998" />
    <path
       style="opacity:1;fill:#000000;fill-opacity:1;stroke:none;stroke-width:0.11784913;stroke-miterlimit:4;stroke-dasharray:0.70709479, 0.23569826;stroke-dashoffset:0;stroke-opacity:1"
       d="m 56.580383,207.63587 c 0.180228,3.31999 -4.422974,5.18928 -6.607112,2.6804 -2.402774,-2.22187 -0.507719,-6.70296 2.759853,-6.52767 2.070507,-0.0411 3.888125,1.77548 3.847259,3.84727 z"
       id="path4504-5-0-7"
       inkscape:connector-curvature="0"
       inkscape:export-xdpi="0.95999998"
       inkscape:export-ydpi="0.95999998" />
    <path
       style="opacity:1;fill:#000000;fill-opacity:1;stroke:none;stroke-width:0.11784913;stroke-miterlimit:4;stroke-dasharray:0.70709479, 0.23569826;stroke-dashoffset:0;stroke-opacity:1"
       d="m 76.014226,207.63587 c 0.180228,3.31999 -4.422974,5.18928 -6.607113,2.6804 -2.402773,-2.22187 -0.507718,-6.70296 2.759854,-6.52767 2.070507,-0.0411 3.888124,1.77548 3.847259,3.84727 z"
       id="circle4506-3-6-5"
       inkscape:connector-curvature="0"
       inkscape:export-xdpi="0.95999998"
       inkscape:export-ydpi="0.95999998" />
    <path
       style="opacity:1;fill:#000000;fill-opacity:1;stroke:none;stroke-width:0.11784913;stroke-miterlimit:4;stroke-dasharray:0.70709479, 0.23569826;stroke-dashoffset:0;stroke-opacity:1"
       d="m 95.448069,207.63587 c 0.180234,3.31999 -4.422977,5.18928 -6.607114,2.6804 -2.402771,-2.22187 -0.507717,-6.70296 2.759857,-6.52767 2.070505,-0.0411 3.888126,1.77548 3.847257,3.84727 z"
       id="circle4508-5-2-9"
       inkscape:connector-curvature="0"
       inkscape:export-xdpi="0.95999998"
       inkscape:export-ydpi="0.95999998" />
    <path
       style="opacity:1;fill:#000000;fill-opacity:1;stroke:none;stroke-width:0.11784913;stroke-miterlimit:4;stroke-dasharray:0.7070948, 0.23569826;stroke-dashoffset:0;stroke-opacity:1"
       d="m 114.88191,207.63587 c 0.18022,3.31999 -4.42298,5.18928 -6.60711,2.6804 -2.40277,-2.22187 -0.50772,-6.70296 2.75985,-6.52767 2.07051,-0.0411 3.88812,1.77548 3.84726,3.84727 z"
       id="path4504-3-6-6-2"
       inkscape:connector-curvature="0"
       inkscape:export-xdpi="0.95999998"
       inkscape:export-ydpi="0.95999998" />
    <path
       style="opacity:1;fill:#000000;fill-opacity:1;stroke:none;stroke-width:0.11784913;stroke-miterlimit:4;stroke-dasharray:0.7070948, 0.23569826;stroke-dashoffset:0;stroke-opacity:1"
       d="m 134.31575,207.63587 c 0.18023,3.31999 -4.42297,5.18928 -6.60712,2.6804 -2.40276,-2.22187 -0.50771,-6.70296 2.75986,-6.52767 2.07051,-0.0411 3.88813,1.77548 3.84726,3.84727 z"
       id="circle4506-6-2-1-2"
       inkscape:connector-curvature="0"
       inkscape:export-xdpi="0.95999998"
       inkscape:export-ydpi="0.95999998" />
    <path
       style="opacity:1;fill:#000000;fill-opacity:1;stroke:none;stroke-width:0.11784913;stroke-miterlimit:4;stroke-dasharray:0.7070948, 0.23569826;stroke-dashoffset:0;stroke-opacity:1"
       d="m 153.74959,207.63587 c 0.18023,3.31999 -4.42297,5.18928 -6.60711,2.6804 -2.40276,-2.22187 -0.50772,-6.70296 2.75986,-6.52767 2.07051,-0.0411 3.88812,1.77548 3.84725,3.84727 z"
       id="circle4508-7-9-8-8"
       inkscape:connector-curvature="0"
       inkscape:export-xdpi="0.95999998"
       inkscape:export-ydpi="0.95999998" />
    <path
       sodipodi:type="star"
       style="opacity:1;fill:#000000;fill-opacity:1;stroke:none;stroke-width:0.04142311;stroke-miterlimit:4;stroke-dasharray:0.24853861, 0.08284621;stroke-dashoffset:0;stroke-opacity:1"
       id="path4657"
       sodipodi:sides="6"
       sodipodi:cx="52.738025"
       sodipodi:cy="227.06353"
       sodipodi:r1="6.7505431"
       sodipodi:r2="1.5256227"
       sodipodi:arg1="0.78539816"
       sodipodi:arg2="1.3089969"
       inkscape:flatsided="false"
       inkscape:rounded="0"
       inkscape:randomized="0"
       d="m 57.51138,231.83689 -4.378494,-3.29971 -2.142029,5.04688 0.668391,-5.44174 -5.441746,0.66839 5.046885,-2.14203 -3.299716,-4.3785 4.378494,3.29972 2.14203,-5.04689 -0.668391,5.44175 5.441746,-0.66839 -5.046886,2.14203 z"
       inkscape:transform-center-x="0.7967641"
       inkscape:transform-center-y="-0.79676419"
       inkscape:export-xdpi="0.95999998"
       inkscape:export-ydpi="0.95999998" />
    <path
       sodipodi:type="star"
       style="opacity:1;fill:#000000;fill-opacity:1;stroke:none;stroke-width:0.04142311;stroke-miterlimit:4;stroke-dasharray:0.24853861, 0.08284621;stroke-dashoffset:0;stroke-opacity:1"
       id="path4657-9"
       sodipodi:sides="6"
       sodipodi:cx="72.17187"
       sodipodi:cy="227.06353"
       sodipodi:r1="6.7505431"
       sodipodi:r2="1.5256227"
       sodipodi:arg1="0.78539816"
       sodipodi:arg2="1.3089969"
       inkscape:flatsided="false"
       inkscape:rounded="0"
       inkscape:randomized="0"
       d="m 76.945222,231.83689 -4.378494,-3.29971 -2.14203,5.04688 0.668391,-5.44174 -5.441746,0.66839 5.046886,-2.14203 -3.299716,-4.3785 4.378494,3.29972 2.142029,-5.04689 -0.66839,5.44175 5.441745,-0.66839 -5.046885,2.14203 z"
       inkscape:transform-center-x="0.79676139"
       inkscape:transform-center-y="-0.7967631"
       inkscape:export-xdpi="0.95999998"
       inkscape:export-ydpi="0.95999998" />
    <path
       sodipodi:type="star"
       style="opacity:1;fill:#000000;fill-opacity:1;stroke:none;stroke-width:0.04142311;stroke-miterlimit:4;stroke-dasharray:0.24853861, 0.08284621;stroke-dashoffset:0;stroke-opacity:1"
       id="path4657-7"
       sodipodi:sides="6"
       sodipodi:cx="91.605708"
       sodipodi:cy="227.06353"
       sodipodi:r1="6.7505431"
       sodipodi:r2="1.5256227"
       sodipodi:arg1="0.78539816"
       sodipodi:arg2="1.3089969"
       inkscape:flatsided="false"
       inkscape:rounded="0"
       inkscape:randomized="0"
       d="m 96.37906,231.83689 -4.378494,-3.29971 -2.14203,5.04688 0.668391,-5.44174 -5.441746,0.66839 5.046886,-2.14203 -3.299717,-4.3785 4.378495,3.29972 2.142029,-5.04689 -0.668391,5.44175 5.441746,-0.66839 -5.046885,2.14203 z"
       inkscape:transform-center-x="0.79676237"
       inkscape:transform-center-y="-0.79676298"
       inkscape:export-xdpi="0.95999998"
       inkscape:export-ydpi="0.95999998" />
    <path
       sodipodi:type="star"
       style="opacity:1;fill:#000000;fill-opacity:1;stroke:none;stroke-width:0.04142311;stroke-miterlimit:4;stroke-dasharray:0.24853862, 0.08284621;stroke-dashoffset:0;stroke-opacity:1"
       id="path4657-9-3"
       sodipodi:sides="6"
       sodipodi:cx="111.03955"
       sodipodi:cy="227.06353"
       sodipodi:r1="6.7505431"
       sodipodi:r2="1.5256227"
       sodipodi:arg1="0.78539816"
       sodipodi:arg2="1.3089969"
       inkscape:flatsided="false"
       inkscape:rounded="0"
       inkscape:randomized="0"
       d="m 115.81291,231.83689 -4.3785,-3.29971 -2.14203,5.04688 0.66839,-5.44174 -5.44174,0.66839 5.04688,-2.14203 -3.29971,-4.3785 4.37849,3.29972 2.14203,-5.04689 -0.66839,5.44175 5.44174,-0.66839 -5.04688,2.14203 z"
       inkscape:transform-center-x="0.79676025"
       inkscape:transform-center-y="-0.79676419"
       inkscape:export-xdpi="0.95999998"
       inkscape:export-ydpi="0.95999998" />
    <path
       inkscape:transform-center-y="-0.79676298"
       inkscape:transform-center-x="0.79676148"
       d="m 135.24676,231.83689 -4.3785,-3.29971 -2.14203,5.04688 0.6684,-5.44174 -5.44175,0.66839 5.04689,-2.14203 -3.29972,-4.3785 4.37849,3.29972 2.14203,-5.04689 -0.66839,5.44175 5.44175,-0.66839 -5.04689,2.14203 z"
       inkscape:randomized="0"
       inkscape:rounded="0"
       inkscape:flatsided="false"
       sodipodi:arg2="1.3089969"
       sodipodi:arg1="0.78539816"
       sodipodi:r2="1.5256227"
       sodipodi:r1="6.7505431"
       sodipodi:cy="227.06353"
       sodipodi:cx="130.4734"
       sodipodi:sides="6"
       id="path4692"
       style="opacity:1;fill:#000000;fill-opacity:1;stroke:none;stroke-width:0.04142311;stroke-miterlimit:4;stroke-dasharray:0.24853861, 0.08284621;stroke-dashoffset:0;stroke-opacity:1"
       sodipodi:type="star"
       inkscape:export-xdpi="0.95999998"
       inkscape:export-ydpi="0.95999998" />
    <path
       inkscape:transform-center-y="-0.79676419"
       inkscape:transform-center-x="0.79675117"
       d="m 154.6806,231.83689 -4.3785,-3.29971 -2.14203,5.04688 0.66839,-5.44174 -5.44174,0.66839 5.04688,-2.14203 -3.29971,-4.3785 4.37849,3.29972 2.14203,-5.04689 -0.66839,5.44175 5.44175,-0.66839 -5.04689,2.14203 z"
       inkscape:randomized="0"
       inkscape:rounded="0"
       inkscape:flatsided="false"
       sodipodi:arg2="1.3089969"
       sodipodi:arg1="0.78539816"
       sodipodi:r2="1.5256227"
       sodipodi:r1="6.7505431"
       sodipodi:cy="227.06353"
       sodipodi:cx="149.90724"
       sodipodi:sides="6"
       id="path4694"
       style="opacity:1;fill:#000000;fill-opacity:1;stroke:none;stroke-width:0.04142311;stroke-miterlimit:4;stroke-dasharray:0.24853862, 0.08284621;stroke-dashoffset:0;stroke-opacity:1"
       sodipodi:type="star"
       inkscape:export-xdpi="0.95999998"
       inkscape:export-ydpi="0.95999998" />
    <path
       inkscape:transform-center-y="-0.79674962"
       inkscape:transform-center-x="0.7967641"
       d="m 57.51138,95.799989 -4.378494,-3.299716 -2.142029,5.046885 0.668391,-5.441746 -5.441746,0.668391 5.046885,-2.142029 -3.299716,-4.378495 4.378494,3.299717 2.14203,-5.046886 -0.668391,5.441746 5.441746,-0.668391 -5.046886,2.142029 z"
       inkscape:randomized="0"
       inkscape:rounded="0"
       inkscape:flatsided="false"
       sodipodi:arg2="1.3089969"
       sodipodi:arg1="0.78539816"
       sodipodi:r2="1.5256227"
       sodipodi:r1="6.7505431"
       sodipodi:cy="91.026636"
       sodipodi:cx="52.738025"
       sodipodi:sides="6"
       id="path4700"
       style="opacity:1;fill:#000000;fill-opacity:1;stroke:none;stroke-width:0.04142311;stroke-miterlimit:4;stroke-dasharray:0.24853861, 0.08284621;stroke-dashoffset:0;stroke-opacity:1"
       sodipodi:type="star"
       inkscape:export-xdpi="0.95999998"
       inkscape:export-ydpi="0.95999998" />
    <path
       inkscape:transform-center-y="-0.79674853"
       inkscape:transform-center-x="0.79676139"
       d="m 76.945222,95.799989 -4.378494,-3.299716 -2.14203,5.046885 0.668391,-5.441746 -5.441746,0.668391 5.046886,-2.142029 -3.299716,-4.378495 4.378494,3.299717 2.142029,-5.046886 -0.66839,5.441746 5.441745,-0.668391 -5.046885,2.142029 z"
       inkscape:randomized="0"
       inkscape:rounded="0"
       inkscape:flatsided="false"
       sodipodi:arg2="1.3089969"
       sodipodi:arg1="0.78539816"
       sodipodi:r2="1.5256227"
       sodipodi:r1="6.7505431"
       sodipodi:cy="91.026636"
       sodipodi:cx="72.17187"
       sodipodi:sides="6"
       id="path4702"
       style="opacity:1;fill:#000000;fill-opacity:1;stroke:none;stroke-width:0.04142311;stroke-miterlimit:4;stroke-dasharray:0.24853861, 0.08284621;stroke-dashoffset:0;stroke-opacity:1"
       sodipodi:type="star"
       inkscape:export-xdpi="0.95999998"
       inkscape:export-ydpi="0.95999998" />
    <path
       inkscape:transform-center-y="-0.79674847"
       inkscape:transform-center-x="0.79676237"
       d="m 96.37906,95.799989 -4.378494,-3.299716 -2.14203,5.046885 0.668391,-5.441746 -5.441746,0.668391 5.046886,-2.142029 -3.299717,-4.378495 4.378495,3.299717 2.142029,-5.046886 -0.668391,5.441746 5.441746,-0.668391 -5.046885,2.142029 z"
       inkscape:randomized="0"
       inkscape:rounded="0"
       inkscape:flatsided="false"
       sodipodi:arg2="1.3089969"
       sodipodi:arg1="0.78539816"
       sodipodi:r2="1.5256227"
       sodipodi:r1="6.7505431"
       sodipodi:cy="91.026636"
       sodipodi:cx="91.605708"
       sodipodi:sides="6"
       id="path4704"
       style="opacity:1;fill:#000000;fill-opacity:1;stroke:none;stroke-width:0.04142311;stroke-miterlimit:4;stroke-dasharray:0.24853861, 0.08284621;stroke-dashoffset:0;stroke-opacity:1"
       sodipodi:type="star"
       inkscape:export-xdpi="0.95999998"
       inkscape:export-ydpi="0.95999998" />
    <path
       inkscape:transform-center-y="-0.79674962"
       inkscape:transform-center-x="0.79676025"
       d="m 115.81291,95.799989 -4.3785,-3.299716 -2.14203,5.046885 0.66839,-5.441746 -5.44174,0.668391 5.04688,-2.142029 -3.29971,-4.378495 4.37849,3.299717 2.14203,-5.046886 -0.66839,5.441746 5.44174,-0.668391 -5.04688,2.142029 z"
       inkscape:randomized="0"
       inkscape:rounded="0"
       inkscape:flatsided="false"
       sodipodi:arg2="1.3089969"
       sodipodi:arg1="0.78539816"
       sodipodi:r2="1.5256227"
       sodipodi:r1="6.7505431"
       sodipodi:cy="91.026636"
       sodipodi:cx="111.03955"
       sodipodi:sides="6"
       id="path4706"
       style="opacity:1;fill:#000000;fill-opacity:1;stroke:none;stroke-width:0.04142311;stroke-miterlimit:4;stroke-dasharray:0.24853862, 0.08284621;stroke-dashoffset:0;stroke-opacity:1"
       sodipodi:type="star"
       inkscape:export-xdpi="0.95999998"
       inkscape:export-ydpi="0.95999998" />
    <path
       sodipodi:type="star"
       style="opacity:1;fill:#000000;fill-opacity:1;stroke:none;stroke-width:0.04142311;stroke-miterlimit:4;stroke-dasharray:0.24853861, 0.08284621;stroke-dashoffset:0;stroke-opacity:1"
       id="path4708"
       sodipodi:sides="6"
       sodipodi:cx="130.4734"
       sodipodi:cy="91.026636"
       sodipodi:r1="6.7505431"
       sodipodi:r2="1.5256227"
       sodipodi:arg1="0.78539816"
       sodipodi:arg2="1.3089969"
       inkscape:flatsided="false"
       inkscape:rounded="0"
       inkscape:randomized="0"
       d="m 135.24676,95.799989 -4.3785,-3.299716 -2.14203,5.046885 0.6684,-5.441746 -5.44175,0.668391 5.04689,-2.142029 -3.29972,-4.378495 4.37849,3.299717 2.14203,-5.046886 -0.66839,5.441746 5.44175,-0.668391 -5.04689,2.142029 z"
       inkscape:transform-center-x="0.79676148"
       inkscape:transform-center-y="-0.79674847"
       inkscape:export-xdpi="0.95999998"
       inkscape:export-ydpi="0.95999998" />
    <path
       sodipodi:type="star"
       style="opacity:1;fill:#000000;fill-opacity:1;stroke:none;stroke-width:0.04142311;stroke-miterlimit:4;stroke-dasharray:0.24853862, 0.08284621;stroke-dashoffset:0;stroke-opacity:1"
       id="path4710"
       sodipodi:sides="6"
       sodipodi:cx="149.90724"
       sodipodi:cy="91.026636"
       sodipodi:r1="6.7505431"
       sodipodi:r2="1.5256227"
       sodipodi:arg1="0.78539816"
       sodipodi:arg2="1.3089969"
       inkscape:flatsided="false"
       inkscape:rounded="0"
       inkscape:randomized="0"
       d="m 154.6806,95.799989 -4.3785,-3.299716 -2.14203,5.046885 0.66839,-5.441746 -5.44174,0.668391 5.04688,-2.142029 -3.29971,-4.378495 4.37849,3.299717 2.14203,-5.046886 -0.66839,5.441746 5.44175,-0.668391 -5.04689,2.142029 z"
       inkscape:transform-center-x="0.79675117"
       inkscape:transform-center-y="-0.79674962"
       inkscape:export-xdpi="0.95999998"
       inkscape:export-ydpi="0.95999998" />
    <path
       inkscape:transform-center-y="-0.79674962"
       inkscape:transform-center-x="0.79676245"
       d="m 174.11442,95.799989 -4.3785,-3.299716 -2.14202,5.046885 0.66839,-5.441746 -5.44175,0.668391 5.04689,-2.142029 -3.29972,-4.378495 4.37849,3.299717 2.14203,-5.046886 -0.66839,5.441746 5.44175,-0.668391 -5.04689,2.142029 z"
       inkscape:randomized="0"
       inkscape:rounded="0"
       inkscape:flatsided="false"
       sodipodi:arg2="1.3089969"
       sodipodi:arg1="0.78539816"
       sodipodi:r2="1.5256227"
       sodipodi:r1="6.7505431"
       sodipodi:cy="91.026636"
       sodipodi:cx="169.34107"
       sodipodi:sides="6"
       id="path4752"
       style="opacity:1;fill:#000000;fill-opacity:1;stroke:none;stroke-width:0.04142311;stroke-miterlimit:4;stroke-dasharray:0.24853862, 0.08284621;stroke-dashoffset:0;stroke-opacity:1"
       sodipodi:type="star"
       inkscape:export-xdpi="0.95999998"
       inkscape:export-ydpi="0.95999998" />
    <path
       sodipodi:type="star"
       style="opacity:1;fill:#000000;fill-opacity:1;stroke:none;stroke-width:0.04142311;stroke-miterlimit:4;stroke-dasharray:0.24853862, 0.08284621;stroke-dashoffset:0;stroke-opacity:1"
       id="path4754"
       sodipodi:sides="6"
       sodipodi:cx="169.34107"
       sodipodi:cy="110.46047"
       sodipodi:r1="6.7505431"
       sodipodi:r2="1.5256227"
       sodipodi:arg1="0.78539816"
       sodipodi:arg2="1.3089969"
       inkscape:flatsided="false"
       inkscape:rounded="0"
       inkscape:randomized="0"
       d="m 174.11442,115.23383 -4.3785,-3.29972 -2.14202,5.04689 0.66839,-5.44175 -5.44175,0.66839 5.04689,-2.14203 -3.29972,-4.37849 4.37849,3.29971 2.14203,-5.04688 -0.66839,5.44174 5.44175,-0.66839 -5.04689,2.14203 z"
       inkscape:transform-center-x="0.79676245"
       inkscape:transform-center-y="-0.79674693"
       inkscape:export-xdpi="0.95999998"
       inkscape:export-ydpi="0.95999998" />
    <path
       inkscape:transform-center-y="-0.79675941"
       inkscape:transform-center-x="0.79676245"
       d="m 174.11442,134.66767 -4.3785,-3.29971 -2.14202,5.04688 0.66839,-5.44174 -5.44175,0.66839 5.04689,-2.14203 -3.29972,-4.3785 4.37849,3.29972 2.14203,-5.04689 -0.66839,5.44175 5.44175,-0.66839 -5.04689,2.14203 z"
       inkscape:randomized="0"
       inkscape:rounded="0"
       inkscape:flatsided="false"
       sodipodi:arg2="1.3089969"
       sodipodi:arg1="0.78539816"
       sodipodi:r2="1.5256227"
       sodipodi:r1="6.7505431"
       sodipodi:cy="129.89431"
       sodipodi:cx="169.34107"
       sodipodi:sides="6"
       id="path4756"
       style="opacity:1;fill:#000000;fill-opacity:1;stroke:none;stroke-width:0.04142311;stroke-miterlimit:4;stroke-dasharray:0.24853862, 0.08284621;stroke-dashoffset:0;stroke-opacity:1"
       sodipodi:type="star"
       inkscape:export-xdpi="0.95999998"
       inkscape:export-ydpi="0.95999998" />
    <path
       sodipodi:type="star"
       style="opacity:1;fill:#000000;fill-opacity:1;stroke:none;stroke-width:0.04142311;stroke-miterlimit:4;stroke-dasharray:0.24853862, 0.08284621;stroke-dashoffset:0;stroke-opacity:1"
       id="path4758"
       sodipodi:sides="6"
       sodipodi:cx="169.34107"
       sodipodi:cy="168.76202"
       sodipodi:r1="6.7505431"
       sodipodi:r2="1.5256227"
       sodipodi:arg1="0.78539816"
       sodipodi:arg2="1.3089969"
       inkscape:flatsided="false"
       inkscape:rounded="0"
       inkscape:randomized="0"
       d="m 174.11442,173.53538 -4.3785,-3.29972 -2.14202,5.04689 0.66839,-5.44175 -5.44175,0.66839 5.04689,-2.14203 -3.29972,-4.37849 4.37849,3.29972 2.14203,-5.04689 -0.66839,5.44175 5.44175,-0.6684 -5.04689,2.14203 z"
       inkscape:transform-center-x="0.79676245"
       inkscape:transform-center-y="-0.79674688"
       inkscape:export-xdpi="0.95999998"
       inkscape:export-ydpi="0.95999998" />
    <path
       inkscape:transform-center-y="-0.79675288"
       inkscape:transform-center-x="0.79675768"
       d="m 174.11442,154.10151 -4.3785,-3.29972 -2.14202,5.04689 0.66839,-5.44175 -5.44175,0.66839 5.04689,-2.14202 -3.29972,-4.3785 4.37849,3.29972 2.14203,-5.04689 -0.66839,5.44175 5.44175,-0.66839 -5.04689,2.14203 z"
       inkscape:randomized="0"
       inkscape:rounded="0"
       inkscape:flatsided="false"
       sodipodi:arg2="1.3089969"
       sodipodi:arg1="0.78539816"
       sodipodi:r2="1.5256227"
       sodipodi:r1="6.7505431"
       sodipodi:cy="149.32815"
       sodipodi:cx="169.34107"
       sodipodi:sides="6"
       id="path4760"
       style="opacity:1;fill:#000000;fill-opacity:1;stroke:none;stroke-width:0.04142311;stroke-miterlimit:4;stroke-dasharray:0.24853862, 0.08284621;stroke-dashoffset:0;stroke-opacity:1"
       sodipodi:type="star"
       inkscape:export-xdpi="0.95999998"
       inkscape:export-ydpi="0.95999998" />
    <path
       sodipodi:type="star"
       style="opacity:1;fill:#000000;fill-opacity:1;stroke:none;stroke-width:0.04142311;stroke-miterlimit:4;stroke-dasharray:0.24853862, 0.08284621;stroke-dashoffset:0;stroke-opacity:1"
       id="path4762"
       sodipodi:sides="6"
       sodipodi:cx="169.34107"
       sodipodi:cy="188.19586"
       sodipodi:r1="6.7505431"
       sodipodi:r2="1.5256227"
       sodipodi:arg1="0.78539816"
       sodipodi:arg2="1.3089969"
       inkscape:flatsided="false"
       inkscape:rounded="0"
       inkscape:randomized="0"
       d="m 174.11442,192.96922 -4.3785,-3.29972 -2.14202,5.04689 0.66839,-5.44175 -5.44175,0.66839 5.04689,-2.14203 -3.29972,-4.37849 4.37849,3.29971 2.14203,-5.04688 -0.66839,5.44174 5.44175,-0.66839 -5.04689,2.14203 z"
       inkscape:transform-center-x="0.79676245"
       inkscape:transform-center-y="-0.79674379"
       inkscape:export-xdpi="0.95999998"
       inkscape:export-ydpi="0.95999998" />
    <path
       inkscape:transform-center-y="-0.79677948"
       inkscape:transform-center-x="0.79676245"
       d="m 174.11442,212.40301 -4.3785,-3.29972 -2.14202,5.04689 0.66839,-5.44175 -5.44175,0.66839 5.04689,-2.14203 -3.29972,-4.37849 4.37849,3.29972 2.14203,-5.04689 -0.66839,5.44175 5.44175,-0.6684 -5.04689,2.14203 z"
       inkscape:randomized="0"
       inkscape:rounded="0"
       inkscape:flatsided="false"
       sodipodi:arg2="1.3089969"
       sodipodi:arg1="0.78539816"
       sodipodi:r2="1.5256227"
       sodipodi:r1="6.7505431"
       sodipodi:cy="207.62966"
       sodipodi:cx="169.34107"
       sodipodi:sides="6"
       id="path4764"
       style="opacity:1;fill:#000000;fill-opacity:1;stroke:none;stroke-width:0.04142311;stroke-miterlimit:4;stroke-dasharray:0.24853862, 0.08284621;stroke-dashoffset:0;stroke-opacity:1"
       sodipodi:type="star"
       inkscape:export-xdpi="0.95999998"
       inkscape:export-ydpi="0.95999998" />
    <path
       sodipodi:type="star"
       style="opacity:1;fill:#000000;fill-opacity:1;stroke:none;stroke-width:0.04142311;stroke-miterlimit:4;stroke-dasharray:0.24853862, 0.08284621;stroke-dashoffset:0;stroke-opacity:1"
       id="path4766"
       sodipodi:sides="6"
       sodipodi:cx="169.34107"
       sodipodi:cy="227.06353"
       sodipodi:r1="6.7505431"
       sodipodi:r2="1.5256227"
       sodipodi:arg1="0.78539816"
       sodipodi:arg2="1.3089969"
       inkscape:flatsided="false"
       inkscape:rounded="0"
       inkscape:randomized="0"
       d="m 174.11442,231.83689 -4.3785,-3.29971 -2.14202,5.04688 0.66839,-5.44174 -5.44175,0.66839 5.04689,-2.14203 -3.29972,-4.3785 4.37849,3.29972 2.14203,-5.04689 -0.66839,5.44175 5.44175,-0.66839 -5.04689,2.14203 z"
       inkscape:transform-center-x="0.79676245"
       inkscape:transform-center-y="-0.79675483"
       inkscape:export-xdpi="0.95999998"
       inkscape:export-ydpi="0.95999998" />
    <path
       sodipodi:type="star"
       style="opacity:1;fill:#000000;fill-opacity:1;stroke:none;stroke-width:0.04142311;stroke-miterlimit:4;stroke-dasharray:0.24853862, 0.08284621;stroke-dashoffset:0;stroke-opacity:1"
       id="path4768"
       sodipodi:sides="6"
       sodipodi:cx="33.304183"
       sodipodi:cy="91.026636"
       sodipodi:r1="6.7505431"
       sodipodi:r2="1.5256227"
       sodipodi:arg1="0.78539816"
       sodipodi:arg2="1.3089969"
       inkscape:flatsided="false"
       inkscape:rounded="0"
       inkscape:randomized="0"
       d="m 38.077539,95.799989 -4.378495,-3.299716 -2.142029,5.046885 0.668391,-5.441746 -5.441746,0.668391 5.046886,-2.142029 -3.299717,-4.378495 4.378495,3.299717 2.142029,-5.046886 -0.668391,5.441746 5.441746,-0.668391 -5.046886,2.142029 z"
       inkscape:transform-center-x="0.79675391"
       inkscape:transform-center-y="-0.79674962"
       inkscape:export-xdpi="0.95999998"
       inkscape:export-ydpi="0.95999998" />
    <path
       inkscape:transform-center-y="-0.79674693"
       inkscape:transform-center-x="0.79675391"
       d="m 38.077539,115.23383 -4.378495,-3.29972 -2.142029,5.04689 0.668391,-5.44175 -5.441746,0.66839 5.046886,-2.14203 -3.299717,-4.37849 4.378495,3.29971 2.142029,-5.04688 -0.668391,5.44174 5.441746,-0.66839 -5.046886,2.14203 z"
       inkscape:randomized="0"
       inkscape:rounded="0"
       inkscape:flatsided="false"
       sodipodi:arg2="1.3089969"
       sodipodi:arg1="0.78539816"
       sodipodi:r2="1.5256227"
       sodipodi:r1="6.7505431"
       sodipodi:cy="110.46047"
       sodipodi:cx="33.304183"
       sodipodi:sides="6"
       id="path4770"
       style="opacity:1;fill:#000000;fill-opacity:1;stroke:none;stroke-width:0.04142311;stroke-miterlimit:4;stroke-dasharray:0.24853862, 0.08284621;stroke-dashoffset:0;stroke-opacity:1"
       sodipodi:type="star"
       inkscape:export-xdpi="0.95999998"
       inkscape:export-ydpi="0.95999998" />
    <path
       sodipodi:type="star"
       style="opacity:1;fill:#000000;fill-opacity:1;stroke:none;stroke-width:0.04142311;stroke-miterlimit:4;stroke-dasharray:0.24853862, 0.08284621;stroke-dashoffset:0;stroke-opacity:1"
       id="path4772"
       sodipodi:sides="6"
       sodipodi:cx="33.304183"
       sodipodi:cy="129.89431"
       sodipodi:r1="6.7505431"
       sodipodi:r2="1.5256227"
       sodipodi:arg1="0.78539816"
       sodipodi:arg2="1.3089969"
       inkscape:flatsided="false"
       inkscape:rounded="0"
       inkscape:randomized="0"
       d="m 38.077539,134.66767 -4.378495,-3.29971 -2.142029,5.04688 0.668391,-5.44174 -5.441746,0.66839 5.046886,-2.14203 -3.299717,-4.3785 4.378495,3.29972 2.142029,-5.04689 -0.668391,5.44175 5.441746,-0.66839 -5.046886,2.14203 z"
       inkscape:transform-center-x="0.79675391"
       inkscape:transform-center-y="-0.79675941"
       inkscape:export-xdpi="0.95999998"
       inkscape:export-ydpi="0.95999998" />
    <path
       inkscape:transform-center-y="-0.79674688"
       inkscape:transform-center-x="0.79675391"
       d="m 38.077539,173.53538 -4.378495,-3.29972 -2.142029,5.04689 0.668391,-5.44175 -5.441746,0.66839 5.046886,-2.14203 -3.299717,-4.37849 4.378495,3.29972 2.142029,-5.04689 -0.668391,5.44175 5.441746,-0.6684 -5.046886,2.14203 z"
       inkscape:randomized="0"
       inkscape:rounded="0"
       inkscape:flatsided="false"
       sodipodi:arg2="1.3089969"
       sodipodi:arg1="0.78539816"
       sodipodi:r2="1.5256227"
       sodipodi:r1="6.7505431"
       sodipodi:cy="168.76202"
       sodipodi:cx="33.304183"
       sodipodi:sides="6"
       id="path4774"
       style="opacity:1;fill:#000000;fill-opacity:1;stroke:none;stroke-width:0.04142311;stroke-miterlimit:4;stroke-dasharray:0.24853862, 0.08284621;stroke-dashoffset:0;stroke-opacity:1"
       sodipodi:type="star"
       inkscape:export-xdpi="0.95999998"
       inkscape:export-ydpi="0.95999998" />
    <path
       sodipodi:type="star"
       style="opacity:1;fill:#000000;fill-opacity:1;stroke:none;stroke-width:0.04142311;stroke-miterlimit:4;stroke-dasharray:0.24853862, 0.08284621;stroke-dashoffset:0;stroke-opacity:1"
       id="path4776"
       sodipodi:sides="6"
       sodipodi:cx="33.304183"
       sodipodi:cy="149.32815"
       sodipodi:r1="6.7505431"
       sodipodi:r2="1.5256227"
       sodipodi:arg1="0.78539816"
       sodipodi:arg2="1.3089969"
       inkscape:flatsided="false"
       inkscape:rounded="0"
       inkscape:randomized="0"
       d="m 38.077539,154.10151 -4.378495,-3.29972 -2.142029,5.04689 0.668391,-5.44175 -5.441746,0.66839 5.046886,-2.14202 -3.299717,-4.3785 4.378495,3.29972 2.142029,-5.04689 -0.668391,5.44175 5.441746,-0.66839 -5.046886,2.14203 z"
       inkscape:transform-center-x="0.79675391"
       inkscape:transform-center-y="-0.79675288"
       inkscape:export-xdpi="0.95999998"
       inkscape:export-ydpi="0.95999998" />
    <path
       inkscape:transform-center-y="-0.79674379"
       inkscape:transform-center-x="0.79675391"
       d="m 38.077539,192.96922 -4.378495,-3.29972 -2.142029,5.04689 0.668391,-5.44175 -5.441746,0.66839 5.046886,-2.14203 -3.299717,-4.37849 4.378495,3.29971 2.142029,-5.04688 -0.668391,5.44174 5.441746,-0.66839 -5.046886,2.14203 z"
       inkscape:randomized="0"
       inkscape:rounded="0"
       inkscape:flatsided="false"
       sodipodi:arg2="1.3089969"
       sodipodi:arg1="0.78539816"
       sodipodi:r2="1.5256227"
       sodipodi:r1="6.7505431"
       sodipodi:cy="188.19586"
       sodipodi:cx="33.304183"
       sodipodi:sides="6"
       id="path4778"
       style="opacity:1;fill:#000000;fill-opacity:1;stroke:none;stroke-width:0.04142311;stroke-miterlimit:4;stroke-dasharray:0.24853862, 0.08284621;stroke-dashoffset:0;stroke-opacity:1"
       sodipodi:type="star"
       inkscape:export-xdpi="0.95999998"
       inkscape:export-ydpi="0.95999998" />
    <path
       sodipodi:type="star"
       style="opacity:1;fill:#000000;fill-opacity:1;stroke:none;stroke-width:0.04142311;stroke-miterlimit:4;stroke-dasharray:0.24853862, 0.08284621;stroke-dashoffset:0;stroke-opacity:1"
       id="path4780"
       sodipodi:sides="6"
       sodipodi:cx="33.304183"
       sodipodi:cy="207.62966"
       sodipodi:r1="6.7505431"
       sodipodi:r2="1.5256227"
       sodipodi:arg1="0.78539816"
       sodipodi:arg2="1.3089969"
       inkscape:flatsided="false"
       inkscape:rounded="0"
       inkscape:randomized="0"
       d="m 38.077539,212.40301 -4.378495,-3.29972 -2.142029,5.04689 0.668391,-5.44175 -5.441746,0.66839 5.046886,-2.14203 -3.299717,-4.37849 4.378495,3.29972 2.142029,-5.04689 -0.668391,5.44175 5.441746,-0.6684 -5.046886,2.14203 z"
       inkscape:transform-center-x="0.79675391"
       inkscape:transform-center-y="-0.79677948"
       inkscape:export-xdpi="0.95999998"
       inkscape:export-ydpi="0.95999998" />
    <path
       inkscape:transform-center-y="-0.79675483"
       inkscape:transform-center-x="0.79675391"
       d="m 38.077539,231.83689 -4.378495,-3.29971 -2.142029,5.04688 0.668391,-5.44174 -5.441746,0.66839 5.046886,-2.14203 -3.299717,-4.3785 4.378495,3.29972 2.142029,-5.04689 -0.668391,5.44175 5.441746,-0.66839 -5.046886,2.14203 z"
       inkscape:randomized="0"
       inkscape:rounded="0"
       inkscape:flatsided="false"
       sodipodi:arg2="1.3089969"
       sodipodi:arg1="0.78539816"
       sodipodi:r2="1.5256227"
       sodipodi:r1="6.7505431"
       sodipodi:cy="227.06353"
       sodipodi:cx="33.304183"
       sodipodi:sides="6"
       id="path4782"
       style="opacity:1;fill:#000000;fill-opacity:1;stroke:none;stroke-width:0.04142311;stroke-miterlimit:4;stroke-dasharray:0.24853862, 0.08284621;stroke-dashoffset:0;stroke-opacity:1"
       sodipodi:type="star"
       inkscape:export-xdpi="0.95999998"
       inkscape:export-ydpi="0.95999998" />
  </g>
</svg>
